# xmcd CD database file
#
# Track frame offsets:
#	150
#	41206
#	72979
#	93280
#	124960
#	158414
#	176231
#	210261
#
# Disc length: 3256 seconds
#
# Revision: 0
# Processed by: cddbd v1.5.1PL2 Copyright (c) Steve Scherf et al.
# Submitted via: CDex 1.51
#
DISCID=690cb608
DTITLE=Kevin Luce - Yang
DYEAR=1900
DGENRE=New Age
TTITLE0=Reputation
TTITLE1=Amour
TTITLE2=Enfants, projets
TTITLE3=Aide exterieure
TTITLE4=Carriere
TTITLE5=Connaissance
TTITLE6=Sante, famille
TTITLE7=Abondance
EXTD=
EXTT0=
EXTT1=
EXTT2=
EXTT3=
EXTT4=
EXTT5=
EXTT6=
EXTT7=
PLAYORDER=
